<svg width="22" height="22" viewBox="0 0 22 22" fill="none" xmlns="http://www.w3.org/2000/svg">
<mask id="path-1-outside-1_13507_18073" maskUnits="userSpaceOnUse" x="1.72754" y="0" width="20" height="22" fill="black">
<rect fill="white" x="1.72754" width="20" height="22"/>
<path d="M20.8252 6.30664V18.3174C20.8251 19.3362 20.3839 20.0434 19.7891 20.4717C19.2316 20.873 18.5849 20.9999 18.1426 21H5.41016C4.39136 20.9999 3.68416 20.5587 3.25586 19.9639C2.85453 19.4064 2.7276 18.7596 2.72754 18.3174V3.19531C2.72754 2.37164 3.08694 1.78585 3.58008 1.43066C4.03606 1.10236 4.56188 1.00001 4.92285 1H15.5186L20.8252 6.30664ZM4.92285 2.46387C4.79602 2.46387 4.58931 2.50746 4.43555 2.61816C4.31908 2.70202 4.19141 2.84842 4.19141 3.19531V18.3174C4.19147 18.5255 4.25956 18.8541 4.44336 19.1094C4.60038 19.3273 4.86856 19.5361 5.41016 19.5361H18.1426C18.3507 19.536 18.6793 19.4679 18.9346 19.2842C19.1525 19.1272 19.3612 18.8589 19.3613 18.3174V7.8291H15.7031C14.9801 7.8291 14.4206 7.62548 14.0352 7.26855C13.6607 6.92183 13.5078 6.4809 13.5078 6.12207V2.46387H4.92285ZM14.9717 6.11035C14.9729 6.11195 14.9811 6.1496 15.0293 6.19434C15.0828 6.24391 15.2555 6.36621 15.7031 6.36621H18.8145L14.9717 2.52246V6.11035Z"/>
</mask>
<path d="M20.8252 6.30664V18.3174C20.8251 19.3362 20.3839 20.0434 19.7891 20.4717C19.2316 20.873 18.5849 20.9999 18.1426 21H5.41016C4.39136 20.9999 3.68416 20.5587 3.25586 19.9639C2.85453 19.4064 2.7276 18.7596 2.72754 18.3174V3.19531C2.72754 2.37164 3.08694 1.78585 3.58008 1.43066C4.03606 1.10236 4.56188 1.00001 4.92285 1H15.5186L20.8252 6.30664ZM4.92285 2.46387C4.79602 2.46387 4.58931 2.50746 4.43555 2.61816C4.31908 2.70202 4.19141 2.84842 4.19141 3.19531V18.3174C4.19147 18.5255 4.25956 18.8541 4.44336 19.1094C4.60038 19.3273 4.86856 19.5361 5.41016 19.5361H18.1426C18.3507 19.536 18.6793 19.4679 18.9346 19.2842C19.1525 19.1272 19.3612 18.8589 19.3613 18.3174V7.8291H15.7031C14.9801 7.8291 14.4206 7.62548 14.0352 7.26855C13.6607 6.92183 13.5078 6.4809 13.5078 6.12207V2.46387H4.92285ZM14.9717 6.11035C14.9729 6.11195 14.9811 6.1496 15.0293 6.19434C15.0828 6.24391 15.2555 6.36621 15.7031 6.36621H18.8145L14.9717 2.52246V6.11035Z" fill="#292E37"/>
<path d="M20.8252 6.30664H21.0252V6.2238L20.9666 6.16522L20.8252 6.30664ZM20.8252 18.3174L21.0252 18.3174V18.3174H20.8252ZM19.7891 20.4717L19.9059 20.634L19.9059 20.634L19.7891 20.4717ZM18.1426 21V21.2L18.1426 21.2L18.1426 21ZM5.41016 21L5.41014 21.2H5.41016V21ZM3.25586 19.9639L3.09355 20.0807L3.09355 20.0807L3.25586 19.9639ZM2.72754 18.3174L2.52754 18.3174L2.52754 18.3174L2.72754 18.3174ZM3.58008 1.43066L3.46322 1.26836L3.46319 1.26838L3.58008 1.43066ZM4.92285 1L4.92285 0.8L4.92285 0.8L4.92285 1ZM15.5186 1L15.66 0.858579L15.6014 0.8H15.5186V1ZM4.92285 2.46387L4.92285 2.26387L4.92284 2.26387L4.92285 2.46387ZM4.43555 2.61816L4.31869 2.45586L4.31869 2.45586L4.43555 2.61816ZM4.19141 18.3174L3.99141 18.3174L3.99141 18.3174L4.19141 18.3174ZM4.44336 19.1094L4.28105 19.2262L4.28108 19.2263L4.44336 19.1094ZM5.41016 19.5361L5.41013 19.7361H5.41016V19.5361ZM18.1426 19.5361L18.1426 19.7361L18.1427 19.7361L18.1426 19.5361ZM18.9346 19.2842L19.0514 19.4465L19.0515 19.4464L18.9346 19.2842ZM19.3613 18.3174L19.5613 18.3174V18.3174H19.3613ZM19.3613 7.8291H19.5613V7.6291H19.3613V7.8291ZM15.7031 7.8291L15.7031 8.0291H15.7031V7.8291ZM14.0352 7.26855L13.8993 7.4153L13.8993 7.41531L14.0352 7.26855ZM13.5078 6.12207L13.3078 6.12207L13.3078 6.12209L13.5078 6.12207ZM13.5078 2.46387H13.7078V2.26387H13.5078V2.46387ZM14.9717 6.11035H14.7717V6.17658L14.8112 6.22973L14.9717 6.11035ZM15.0293 6.19434L14.8932 6.34086L14.8934 6.34109L15.0293 6.19434ZM15.7031 6.36621L15.7031 6.56621H15.7031V6.36621ZM18.8145 6.36621V6.56621H19.2972L18.9559 6.22481L18.8145 6.36621ZM14.9717 2.52246L15.1131 2.38106L14.7717 2.03953V2.52246H14.9717ZM20.8252 6.30664H20.6252V18.3174H20.8252H21.0252V6.30664H20.8252ZM20.8252 18.3174L20.6252 18.3174C20.6251 19.2709 20.2156 19.9181 19.6722 20.3094L19.7891 20.4717L19.9059 20.634C20.5522 20.1687 21.0251 19.4015 21.0252 18.3174L20.8252 18.3174ZM19.7891 20.4717L19.6722 20.3094C19.1561 20.681 18.5529 20.7999 18.1425 20.8L18.1426 21L18.1426 21.2C18.6169 21.1999 19.3072 21.0651 19.9059 20.634L19.7891 20.4717ZM18.1426 21V20.8H5.41016V21V21.2H18.1426V21ZM5.41016 21L5.41017 20.8C4.45663 20.7999 3.80943 20.3904 3.41817 19.847L3.25586 19.9639L3.09355 20.0807C3.55888 20.727 4.32608 21.1999 5.41014 21.2L5.41016 21ZM3.25586 19.9639L3.41817 19.847C3.04657 19.3309 2.92759 18.7276 2.92754 18.3174L2.72754 18.3174L2.52754 18.3174C2.5276 18.7917 2.66248 19.482 3.09355 20.0807L3.25586 19.9639ZM2.72754 18.3174H2.92754V3.19531H2.72754H2.52754V18.3174H2.72754ZM2.72754 3.19531H2.92754C2.92754 2.43678 3.25534 1.91104 3.69697 1.59295L3.58008 1.43066L3.46319 1.26838C2.91855 1.66067 2.52754 2.3065 2.52754 3.19531H2.72754ZM3.58008 1.43066L3.69694 1.59297C4.11153 1.29447 4.59375 1.20001 4.92286 1.2L4.92285 1L4.92285 0.8C4.53001 0.80001 3.96059 0.910253 3.46322 1.26836L3.58008 1.43066ZM4.92285 1V1.2H15.5186V1V0.8H4.92285V1ZM15.5186 1L15.3771 1.14142L20.6838 6.44806L20.8252 6.30664L20.9666 6.16522L15.66 0.858579L15.5186 1ZM4.92285 2.46387L4.92284 2.26387C4.76419 2.26388 4.51387 2.31533 4.31869 2.45586L4.43555 2.61816L4.55241 2.78047C4.66476 2.69958 4.82786 2.66387 4.92286 2.66387L4.92285 2.46387ZM4.43555 2.61816L4.31869 2.45586C4.24214 2.51097 4.15648 2.59104 4.09192 2.71669C4.02799 2.84109 3.99141 2.99714 3.99141 3.19531H4.19141H4.39141C4.39141 3.04659 4.41867 2.95599 4.44769 2.89951C4.47608 2.84427 4.51249 2.80921 4.55241 2.78047L4.43555 2.61816ZM4.19141 3.19531H3.99141V18.3174H4.19141H4.39141V3.19531H4.19141ZM4.19141 18.3174L3.99141 18.3174C3.99148 18.5575 4.06749 18.9296 4.28105 19.2262L4.44336 19.1094L4.60567 18.9925C4.45163 18.7786 4.39146 18.4935 4.39141 18.3173L4.19141 18.3174ZM4.44336 19.1094L4.28108 19.2263C4.37419 19.3555 4.50326 19.4857 4.69103 19.5823C4.87831 19.6787 5.11313 19.7361 5.41013 19.7361L5.41016 19.5361L5.41019 19.3361C5.16559 19.3361 4.99552 19.2891 4.87405 19.2266C4.75308 19.1644 4.66955 19.0812 4.60564 18.9925L4.44336 19.1094ZM5.41016 19.5361V19.7361H18.1426V19.5361V19.3361H5.41016V19.5361ZM18.1426 19.5361L18.1427 19.7361C18.3827 19.736 18.7549 19.66 19.0514 19.4465L18.9346 19.2842L18.8177 19.1219C18.6038 19.2759 18.3187 19.3361 18.1425 19.3361L18.1426 19.5361ZM18.9346 19.2842L19.0515 19.4464C19.1807 19.3533 19.3109 19.2243 19.4075 19.0365C19.5039 18.8492 19.5613 18.6144 19.5613 18.3174L19.3613 18.3174L19.1613 18.3174C19.1613 18.5619 19.1143 18.732 19.0518 18.8535C18.9896 18.9745 18.9064 19.058 18.8177 19.1219L18.9346 19.2842ZM19.3613 18.3174H19.5613V7.8291H19.3613H19.1613V18.3174H19.3613ZM19.3613 7.8291V7.6291H15.7031V7.8291V8.0291H19.3613V7.8291ZM15.7031 7.8291L15.7031 7.6291C15.0175 7.6291 14.511 7.43659 14.171 7.1218L14.0352 7.26855L13.8993 7.41531C14.3303 7.81436 14.9427 8.0291 15.7031 8.0291L15.7031 7.8291ZM14.0352 7.26855L14.171 7.12181C13.839 6.81432 13.7078 6.42726 13.7078 6.12205L13.5078 6.12207L13.3078 6.12209C13.3079 6.53455 13.4825 7.02934 13.8993 7.4153L14.0352 7.26855ZM13.5078 6.12207H13.7078V2.46387H13.5078H13.3078V6.12207H13.5078ZM13.5078 2.46387V2.26387H4.92285V2.46387V2.66387H13.5078V2.46387ZM14.9717 6.11035L14.8112 6.22973C14.8024 6.21787 14.7969 6.20764 14.7945 6.20302C14.7916 6.19758 14.7896 6.19309 14.7884 6.19045C14.7862 6.18532 14.7847 6.18128 14.7843 6.1801C14.7834 6.17777 14.7827 6.17558 14.7833 6.17729C14.7839 6.17899 14.7854 6.18344 14.7875 6.18901C14.7918 6.20039 14.7981 6.21487 14.807 6.23143C14.8251 6.26478 14.8523 6.30293 14.8932 6.34086L15.0293 6.19434L15.1654 6.04781C15.1581 6.041 15.1571 6.03796 15.1587 6.0409C15.1595 6.04226 15.1604 6.04423 15.1613 6.04671C15.1618 6.04783 15.1621 6.04872 15.1618 6.04788C15.1617 6.04773 15.1615 6.04699 15.1612 6.04628C15.161 6.04561 15.1604 6.04399 15.1597 6.04203C15.1591 6.04048 15.1575 6.03613 15.1552 6.03076C15.154 6.02801 15.1519 6.02341 15.149 6.01788C15.1466 6.01318 15.141 6.00288 15.1321 5.99098L14.9717 6.11035ZM15.0293 6.19434L14.8934 6.34109C14.9917 6.43211 15.2168 6.56621 15.7031 6.56621L15.7031 6.36621L15.7031 6.16621C15.2941 6.16621 15.174 6.05572 15.1652 6.04758L15.0293 6.19434ZM15.7031 6.36621V6.56621H18.8145V6.36621V6.16621H15.7031V6.36621ZM18.8145 6.36621L18.9559 6.22481L15.1131 2.38106L14.9717 2.52246L14.8302 2.66386L18.673 6.50761L18.8145 6.36621ZM14.9717 2.52246H14.7717V6.11035H14.9717H15.1717V2.52246H14.9717Z" fill="#292E37" mask="url(#path-1-outside-1_13507_18073)"/>
<path d="M0 10.2842C0 9.74539 0.436795 9.30859 0.97561 9.30859H14.6341C15.173 9.30859 15.6098 9.74539 15.6098 10.2842V17.1135C15.6098 17.6523 15.173 18.0891 14.6341 18.0891H0.97561C0.436795 18.0891 0 17.6523 0 17.1135V10.2842Z" fill="#CF1919"/>
<path d="M2.78115 14.3324V16.1364H1.9375V11.2812H3.79487C4.3373 11.2812 4.76747 11.4224 5.08537 11.7047C5.40549 11.9871 5.56555 12.3606 5.56555 12.8252C5.56555 13.3009 5.40882 13.671 5.09537 13.9356C4.78414 14.2001 4.34731 14.3324 3.78487 14.3324H2.78115ZM2.78115 13.6555H3.79487C4.09499 13.6555 4.32396 13.5855 4.4818 13.4454C4.63964 13.3031 4.71856 13.0986 4.71856 12.8318C4.71856 12.5695 4.63853 12.3606 4.47847 12.2049C4.31841 12.0471 4.09832 11.966 3.81822 11.9615H2.78115V13.6555Z" fill="white"/>
<path d="M6.37412 16.1364V11.2812H7.808C8.23705 11.2812 8.6172 11.3768 8.94844 11.568C9.2819 11.7592 9.53977 12.0304 9.72206 12.3817C9.90436 12.7329 9.9955 13.1353 9.9955 13.5888V13.8322C9.9955 14.2924 9.90325 14.697 9.71873 15.046C9.53644 15.395 9.27523 15.664 8.9351 15.853C8.59719 16.042 8.20927 16.1364 7.77132 16.1364H6.37412ZM7.21778 11.9615V15.4628H7.76799C8.21038 15.4628 8.5494 15.325 8.78504 15.0494C9.02291 14.7715 9.14407 14.3735 9.14851 13.8556V13.5855C9.14851 13.0586 9.03403 12.6562 8.80505 12.3783C8.57607 12.1005 8.24372 11.9615 7.808 11.9615H7.21778Z" fill="white"/>
<path d="M13.7018 14.079H11.7478V16.1364H10.9041V11.2812H13.9886V11.9615H11.7478V13.4054H13.7018V14.079Z" fill="white"/>
</svg>
