<svg width="20" height="20" viewBox="0 0 20 20" fill="none" xmlns="http://www.w3.org/2000/svg">
<path fill-rule="evenodd" clip-rule="evenodd" d="M5.73412 2.34447C6.0989 2.08182 6.51906 2.00001 6.80784 2H13.6845L17.9298 6.24534V15.8537C17.9298 16.6688 17.577 17.2348 17.1011 17.5775C16.655 17.8987 16.1373 18 15.7835 18H7.1981C6.38293 18 5.81695 17.6472 5.47427 17.1713C5.15309 16.7252 5.05176 16.2075 5.05176 15.8537V3.7561C5.05176 3.09702 5.33948 2.6286 5.73412 2.34447ZM6.41818 3.29456C6.32501 3.36164 6.22249 3.47858 6.22249 3.7561V15.8537C6.22249 16.0201 6.27725 16.2829 6.42436 16.4872C6.54998 16.6617 6.76449 16.8293 7.1981 16.8293H15.7835C15.95 16.8293 16.2127 16.7745 16.417 16.6274C16.5915 16.5018 16.7591 16.2873 16.7591 15.8537V7.46341H13.8322C13.2538 7.46341 12.8063 7.30043 12.498 7.01488C12.1983 6.73746 12.0761 6.38467 12.0761 6.09756V3.17073H6.80787C6.80787 3.17073 6.80787 3.17073 6.80787 3.17073C6.7064 3.17074 6.54119 3.20599 6.41818 3.29456ZM13.2469 3.21808V6.08857C13.2478 6.08986 13.2546 6.11993 13.2934 6.15585C13.3362 6.19551 13.4741 6.29268 13.8322 6.29268H16.3215L13.2469 3.21808Z" fill="#6E7685"/>
<path d="M2.07007 9.42746C2.07007 8.99641 2.4195 8.64697 2.85056 8.64697H13.7774C14.2084 8.64697 14.5579 8.99641 14.5579 9.42746V14.8909C14.5579 15.3219 14.2084 15.6714 13.7774 15.6714H2.85056C2.4195 15.6714 2.07007 15.3219 2.07007 14.8909V9.42746Z" fill="#283D84"/>
<path d="M5.17871 10.2866V14.1708H4.44776V10.2866H5.17871ZM6.3845 10.2866V10.8655H3.25531V10.2866H6.3845Z" fill="white"/>
<path d="M7.51155 10.2866L8.28784 11.6711L9.0668 10.2866H9.90979L8.75735 12.2127L9.93914 14.1708H9.08815L8.28784 12.7596L7.4902 14.1708H6.63655L7.81833 12.2127L6.66589 10.2866H7.51155Z" fill="white"/>
<path d="M12.1119 10.2866V14.1708H11.381V10.2866H12.1119ZM13.3177 10.2866V10.8655H10.1885V10.2866H13.3177Z" fill="white"/>
</svg>
