<svg width="20" height="20" viewBox="0 0 20 20" fill="none" xmlns="http://www.w3.org/2000/svg">
<path fill-rule="evenodd" clip-rule="evenodd" d="M5.73412 2.34447C6.0989 2.08182 6.51906 2.00001 6.80784 2H13.6845L17.9298 6.24534V15.8537C17.9298 16.6688 17.577 17.2348 17.1011 17.5775C16.655 17.8987 16.1373 18 15.7835 18H7.1981C6.38293 18 5.81695 17.6472 5.47427 17.1713C5.15309 16.7252 5.05176 16.2075 5.05176 15.8537V3.7561C5.05176 3.09702 5.33948 2.6286 5.73412 2.34447ZM6.41818 3.29456C6.32501 3.36164 6.22249 3.47858 6.22249 3.7561V15.8537C6.22249 16.0201 6.27725 16.2829 6.42436 16.4872C6.54998 16.6617 6.76449 16.8293 7.1981 16.8293H15.7835C15.95 16.8293 16.2127 16.7745 16.417 16.6274C16.5915 16.5018 16.7591 16.2873 16.7591 15.8537V7.46341H13.8322C13.2538 7.46341 12.8063 7.30043 12.498 7.01488C12.1983 6.73746 12.0761 6.38467 12.0761 6.09756V3.17073H6.80787C6.80787 3.17073 6.80787 3.17073 6.80787 3.17073C6.7064 3.17074 6.54119 3.20599 6.41818 3.29456ZM13.2469 3.21808V6.08857C13.2478 6.08986 13.2546 6.11993 13.2934 6.15585C13.3362 6.19551 13.4741 6.29268 13.8322 6.29268H16.3215L13.2469 3.21808Z" fill="#6E7685"/>
<path d="M2.07007 9.42746C2.07007 8.99641 2.4195 8.64697 2.85056 8.64697H13.7774C14.2084 8.64697 14.5579 8.99641 14.5579 9.42746V14.8909C14.5579 15.3219 14.2084 15.6714 13.7774 15.6714H2.85056C2.4195 15.6714 2.07007 15.3219 2.07007 14.8909V9.42746Z" fill="#2E8448"/>
<path d="M5.5892 12.9302H6.32281C6.30325 13.1898 6.23122 13.4201 6.10673 13.6211C5.98224 13.8203 5.80884 13.9768 5.58653 14.0906C5.36423 14.2044 5.09479 14.2613 4.77823 14.2613C4.53458 14.2613 4.31494 14.2187 4.11931 14.1333C3.92546 14.0462 3.75917 13.9225 3.62045 13.7625C3.48351 13.6006 3.37858 13.4068 3.30566 13.1809C3.23275 12.9533 3.19629 12.6981 3.19629 12.4153V12.1192C3.19629 11.8364 3.23364 11.5812 3.30833 11.3536C3.38303 11.1259 3.48973 10.9321 3.62845 10.772C3.76895 10.6102 3.93702 10.4857 4.13265 10.3985C4.33005 10.3114 4.55058 10.2678 4.79423 10.2678C5.1108 10.2678 5.37845 10.3265 5.5972 10.4439C5.81595 10.5595 5.9858 10.7187 6.10673 10.9214C6.22767 11.1241 6.30058 11.3571 6.32548 11.6203H5.59187C5.57764 11.4567 5.54207 11.318 5.48516 11.2042C5.43003 11.0904 5.34644 11.0041 5.2344 10.9454C5.12413 10.8849 4.97741 10.8547 4.79423 10.8547C4.65195 10.8547 4.52657 10.8814 4.41809 10.9347C4.31138 10.9881 4.22246 11.0681 4.15132 11.1748C4.08018 11.2798 4.02683 11.4114 3.99126 11.5697C3.95569 11.7262 3.9379 11.9076 3.9379 12.1139V12.4153C3.9379 12.6127 3.95391 12.7897 3.98592 12.9462C4.01794 13.1027 4.06773 13.2352 4.13531 13.3437C4.20289 13.4521 4.29004 13.5348 4.39675 13.5918C4.50345 13.6487 4.63061 13.6771 4.77823 13.6771C4.95785 13.6771 5.10368 13.6487 5.21573 13.5918C5.32955 13.5348 5.4158 13.4513 5.47449 13.341C5.53496 13.2307 5.57319 13.0938 5.5892 12.9302Z" fill="white"/>
<path d="M8.97844 13.1996C8.97844 13.1249 8.96688 13.0582 8.94376 12.9995C8.92242 12.9391 8.8824 12.8848 8.82371 12.8368C8.7668 12.787 8.68588 12.739 8.58095 12.6927C8.4778 12.6447 8.34442 12.5949 8.1808 12.5434C7.9994 12.4864 7.83045 12.4224 7.67394 12.3513C7.51744 12.2801 7.37961 12.1974 7.26045 12.1032C7.14307 12.0089 7.05148 11.9004 6.98568 11.7777C6.91988 11.6532 6.88698 11.5092 6.88698 11.3456C6.88698 11.1855 6.92077 11.0397 6.98835 10.9081C7.05771 10.7765 7.15552 10.6635 7.28179 10.5693C7.40806 10.4732 7.55656 10.3994 7.7273 10.3479C7.89981 10.2963 8.0901 10.2705 8.29818 10.2705C8.58629 10.2705 8.83527 10.323 9.04513 10.4279C9.25677 10.5328 9.42038 10.6751 9.53598 10.8547C9.65158 11.0343 9.70938 11.2362 9.70938 11.4603H8.97844C8.97844 11.3393 8.95265 11.2326 8.90108 11.1402C8.85128 11.0477 8.77481 10.9748 8.67166 10.9214C8.57028 10.8681 8.44223 10.8414 8.28751 10.8414C8.13812 10.8414 8.01363 10.8636 7.91403 10.9081C7.81622 10.9525 7.74241 11.013 7.69262 11.0895C7.6446 11.1659 7.62059 11.2513 7.62059 11.3456C7.62059 11.4167 7.63748 11.4807 7.67127 11.5376C7.70506 11.5928 7.75575 11.6452 7.82333 11.695C7.89091 11.7431 7.9745 11.7884 8.07409 11.8311C8.17547 11.872 8.29284 11.9129 8.42623 11.9538C8.63964 12.0178 8.82638 12.089 8.98644 12.1672C9.14828 12.2455 9.28255 12.3344 9.38926 12.434C9.49775 12.5336 9.57867 12.6456 9.63202 12.7701C9.68715 12.8946 9.71472 13.036 9.71472 13.1943C9.71472 13.3614 9.68182 13.5108 9.61601 13.6424C9.55021 13.774 9.45595 13.8861 9.33324 13.9786C9.21053 14.071 9.06292 14.1413 8.89041 14.1893C8.71967 14.2373 8.52849 14.2613 8.31685 14.2613C8.12834 14.2613 7.9416 14.2364 7.75664 14.1866C7.57346 14.1351 7.40717 14.0586 7.25778 13.9572C7.10839 13.8541 6.98924 13.7243 6.90031 13.5677C6.81139 13.4095 6.76693 13.2245 6.76693 13.0129H7.50321C7.50321 13.1356 7.52277 13.2405 7.5619 13.3277C7.6028 13.413 7.65971 13.4833 7.73263 13.5384C7.80733 13.5918 7.89447 13.6309 7.99406 13.6558C8.09366 13.6807 8.20125 13.6931 8.31685 13.6931C8.46624 13.6931 8.58896 13.6727 8.68499 13.6318C8.78281 13.5891 8.85573 13.5304 8.90374 13.4557C8.95354 13.381 8.97844 13.2956 8.97844 13.1996Z" fill="white"/>
<path d="M11.7008 13.4477L12.6691 10.3238H13.4828L12.1116 14.208H11.57L11.7008 13.4477ZM10.8071 10.3238L11.7701 13.4477L11.9088 14.208H11.362L9.99611 10.3238H10.8071Z" fill="white"/>
</svg>
