<svg width="20" height="20" viewBox="0 0 20 20" fill="none" xmlns="http://www.w3.org/2000/svg">
<path fill-rule="evenodd" clip-rule="evenodd" d="M5.73418 2.34447C6.09897 2.08182 6.51912 2.00001 6.8079 2H13.6845L17.9299 6.24534V15.8537C17.9299 16.6688 17.5771 17.2348 17.1012 17.5775C16.6551 17.8987 16.1374 18 15.7835 18H7.19816C6.38299 18 5.81701 17.6472 5.47434 17.1713C5.15315 16.7252 5.05182 16.2075 5.05182 15.8537V3.7561C5.05182 3.09702 5.33955 2.6286 5.73418 2.34447ZM6.41824 3.29456C6.32507 3.36164 6.22255 3.47858 6.22255 3.7561V15.8537C6.22255 16.0201 6.27731 16.2829 6.42442 16.4872C6.55005 16.6617 6.76455 16.8293 7.19816 16.8293H15.7835C15.95 16.8293 16.2128 16.7745 16.4171 16.6274C16.5916 16.5018 16.7591 16.2873 16.7591 15.8537V7.46341H13.8323C13.2538 7.46341 12.8064 7.30043 12.498 7.01488C12.1984 6.73746 12.0762 6.38467 12.0762 6.09756V3.17073H6.80793C6.80793 3.17073 6.80794 3.17073 6.80793 3.17073C6.70647 3.17074 6.54125 3.20599 6.41824 3.29456ZM13.2469 3.21808V6.08857C13.2479 6.08986 13.2546 6.11993 13.2934 6.15585C13.3363 6.19551 13.4742 6.29268 13.8323 6.29268H16.3215L13.2469 3.21808Z" fill="#6E7685"/>
<path d="M2.07013 9.42746C2.07013 8.99641 2.41957 8.64697 2.85062 8.64697H13.7774C14.2085 8.64697 14.5579 8.99641 14.5579 9.42746V14.8909C14.5579 15.3219 14.2085 15.6714 13.7774 15.6714H2.85062C2.41957 15.6714 2.07013 15.3219 2.07013 14.8909V9.42746Z" fill="#CF1919"/>
<path d="M4.29535 12.6672V14.1105H3.62042V10.2263H5.10632C5.54026 10.2263 5.8844 10.3393 6.13872 10.5651C6.39481 10.791 6.52286 11.0898 6.52286 11.4615C6.52286 11.842 6.39748 12.1382 6.14672 12.3498C5.89773 12.5614 5.54827 12.6672 5.09832 12.6672H4.29535ZM4.29535 12.1257H5.10632C5.34641 12.1257 5.52959 12.0697 5.65586 11.9576C5.78213 11.8438 5.84527 11.6802 5.84527 11.4668C5.84527 11.2569 5.78125 11.0898 5.6532 10.9653C5.52515 10.839 5.34908 10.7741 5.125 10.7705H4.29535V12.1257Z" fill="white"/>
<path d="M7.16972 14.1105V10.2263H8.31682C8.66007 10.2263 8.96418 10.3028 9.22917 10.4557C9.49594 10.6087 9.70224 10.8257 9.84807 11.1067C9.99391 11.3876 10.0668 11.7096 10.0668 12.0724V12.2671C10.0668 12.6352 9.99302 12.9589 9.84541 13.2381C9.69957 13.5173 9.49061 13.7325 9.2185 13.8837C8.94818 14.0349 8.63784 14.1105 8.28748 14.1105H7.16972ZM7.84465 10.7705V13.5716H8.28481C8.63873 13.5716 8.90994 13.4613 9.09846 13.2408C9.28875 13.0185 9.38568 12.7001 9.38923 12.2858V12.0697C9.38923 11.6482 9.29764 11.3263 9.11446 11.104C8.93128 10.8817 8.6654 10.7705 8.31682 10.7705H7.84465Z" fill="white"/>
<path d="M13.0319 12.4645H11.4686V14.1105H10.7937V10.2263H13.2613V10.7705H11.4686V11.9256H13.0319V12.4645Z" fill="white"/>
</svg>
