<svg width="20" height="20" viewBox="0 0 20 20" fill="none" xmlns="http://www.w3.org/2000/svg">
<path fill-rule="evenodd" clip-rule="evenodd" d="M5.73412 2.34447C6.0989 2.08182 6.51906 2.00001 6.80784 2H13.6845L17.9298 6.24534V15.8537C17.9298 16.6688 17.577 17.2348 17.1011 17.5775C16.655 17.8987 16.1373 18 15.7835 18H7.1981C6.38293 18 5.81695 17.6472 5.47427 17.1713C5.15309 16.7252 5.05176 16.2075 5.05176 15.8537V3.7561C5.05176 3.09702 5.33948 2.6286 5.73412 2.34447ZM6.41818 3.29456C6.32501 3.36164 6.22249 3.47858 6.22249 3.7561V15.8537C6.22249 16.0201 6.27725 16.2829 6.42436 16.4872C6.54998 16.6617 6.76449 16.8293 7.1981 16.8293H15.7835C15.95 16.8293 16.2127 16.7745 16.417 16.6274C16.5915 16.5018 16.7591 16.2873 16.7591 15.8537V7.46341H13.8322C13.2538 7.46341 12.8063 7.30043 12.498 7.01488C12.1983 6.73746 12.0761 6.38467 12.0761 6.09756V3.17073H6.80787C6.80787 3.17073 6.80787 3.17073 6.80787 3.17073C6.7064 3.17074 6.54119 3.20599 6.41818 3.29456ZM13.2469 3.21808V6.08857C13.2478 6.08986 13.2546 6.11993 13.2934 6.15585C13.3362 6.19551 13.4741 6.29268 13.8322 6.29268H16.3215L13.2469 3.21808Z" fill="#6E7685"/>
<path d="M2.07007 9.42746C2.07007 8.99641 2.4195 8.64697 2.85056 8.64697H13.7774C14.2084 8.64697 14.5579 8.99641 14.5579 9.42746V14.8909C14.5579 15.3219 14.2084 15.6714 13.7774 15.6714H2.85056C2.4195 15.6714 2.07007 15.3219 2.07007 14.8909V9.42746Z" fill="#007CBC"/>
<path d="M4.31266 14.2145H3.47501L3.48035 13.6382H4.31266C4.53853 13.6382 4.72793 13.5884 4.88088 13.4889C5.03383 13.3875 5.14943 13.2425 5.22768 13.054C5.30593 12.8637 5.34506 12.6361 5.34506 12.3711V12.171C5.34506 11.9665 5.32283 11.786 5.27837 11.6295C5.2339 11.473 5.1681 11.3414 5.08096 11.2347C4.99559 11.128 4.88977 11.047 4.7635 10.9919C4.63723 10.9368 4.49229 10.9092 4.32867 10.9092H3.45901V10.3303H4.32867C4.58832 10.3303 4.82486 10.3739 5.03827 10.461C5.25347 10.5482 5.43932 10.6736 5.59582 10.8372C5.7541 10.999 5.87504 11.1929 5.95862 11.4187C6.04399 11.6446 6.08667 11.8971 6.08667 12.1763V12.3711C6.08667 12.6485 6.04399 12.9011 5.95862 13.1287C5.87504 13.3546 5.7541 13.5484 5.59582 13.7103C5.43932 13.8721 5.25258 13.9966 5.03561 14.0837C4.81863 14.1709 4.57765 14.2145 4.31266 14.2145ZM3.88583 10.3303V14.2145H3.15222V10.3303H3.88583Z" fill="white"/>
<path d="M9.91074 12.1737V12.3738C9.91074 12.6672 9.87162 12.9313 9.79337 13.1661C9.71511 13.399 9.60396 13.5973 9.4599 13.761C9.31585 13.9246 9.14423 14.05 8.94504 14.1371C8.74586 14.2242 8.52444 14.2678 8.28079 14.2678C8.0407 14.2678 7.82017 14.2242 7.6192 14.1371C7.42002 14.05 7.24751 13.9246 7.10167 13.761C6.95584 13.5973 6.84291 13.399 6.76288 13.1661C6.68285 12.9313 6.64283 12.6672 6.64283 12.3738V12.1737C6.64283 11.8785 6.68285 11.6144 6.76288 11.3814C6.84291 11.1484 6.95495 10.9501 7.09901 10.7865C7.24306 10.6211 7.41468 10.4948 7.61387 10.4077C7.81483 10.3205 8.03536 10.277 8.27545 10.277C8.5191 10.277 8.74052 10.3205 8.93971 10.4077C9.13889 10.4948 9.31051 10.6211 9.45457 10.7865C9.6004 10.9501 9.71245 11.1484 9.7907 11.3814C9.87073 11.6144 9.91074 11.8785 9.91074 12.1737ZM9.16913 12.3738V12.1683C9.16913 11.9567 9.14956 11.7709 9.11044 11.6108C9.07131 11.449 9.01351 11.3129 8.93704 11.2026C8.86057 11.0924 8.76631 11.0097 8.65426 10.9546C8.54222 10.8976 8.41595 10.8692 8.27545 10.8692C8.13318 10.8692 8.00691 10.8976 7.89664 10.9546C7.78816 11.0097 7.69568 11.0924 7.6192 11.2026C7.54273 11.3129 7.48404 11.449 7.44314 11.6108C7.40401 11.7709 7.38445 11.9567 7.38445 12.1683V12.3738C7.38445 12.5836 7.40401 12.7695 7.44314 12.9313C7.48404 13.0931 7.54273 13.2301 7.6192 13.3421C7.69746 13.4524 7.79171 13.536 7.90198 13.5929C8.01224 13.6498 8.13851 13.6783 8.28079 13.6783C8.42307 13.6783 8.54934 13.6498 8.6596 13.5929C8.76986 13.536 8.86234 13.4524 8.93704 13.3421C9.01351 13.2301 9.07131 13.0931 9.11044 12.9313C9.14956 12.7695 9.16913 12.5836 9.16913 12.3738Z" fill="white"/>
<path d="M12.8598 12.9366H13.5934C13.5739 13.1963 13.5018 13.4266 13.3773 13.6276C13.2529 13.8268 13.0795 13.9833 12.8571 14.0971C12.6348 14.2109 12.3654 14.2678 12.0488 14.2678C11.8052 14.2678 11.5856 14.2251 11.3899 14.1398C11.1961 14.0526 11.0298 13.929 10.8911 13.769C10.7541 13.6071 10.6492 13.4133 10.5763 13.1874C10.5034 12.9598 10.4669 12.7046 10.4669 12.4218V12.1257C10.4669 11.8429 10.5042 11.5877 10.5789 11.36C10.6536 11.1324 10.7603 10.9385 10.8991 10.7785C11.0396 10.6166 11.2076 10.4922 11.4033 10.405C11.6007 10.3179 11.8212 10.2743 12.0648 10.2743C12.3814 10.2743 12.6491 10.333 12.8678 10.4504C13.0866 10.566 13.2564 10.7251 13.3773 10.9279C13.4983 11.1306 13.5712 11.3636 13.5961 11.6268H12.8625C12.8483 11.4632 12.8127 11.3245 12.7558 11.2106C12.7006 11.0968 12.6171 11.0106 12.505 10.9519C12.3947 10.8914 12.248 10.8612 12.0648 10.8612C11.9226 10.8612 11.7972 10.8879 11.6887 10.9412C11.582 10.9946 11.4931 11.0746 11.4219 11.1813C11.3508 11.2862 11.2974 11.4178 11.2619 11.5761C11.2263 11.7326 11.2085 11.914 11.2085 12.1203V12.4218C11.2085 12.6192 11.2245 12.7961 11.2565 12.9526C11.2885 13.1091 11.3383 13.2416 11.4059 13.3501C11.4735 13.4586 11.5607 13.5413 11.6674 13.5982C11.7741 13.6551 11.9012 13.6836 12.0488 13.6836C12.2285 13.6836 12.3743 13.6551 12.4863 13.5982C12.6002 13.5413 12.6864 13.4577 12.7451 13.3475C12.8056 13.2372 12.8438 13.1003 12.8598 12.9366Z" fill="white"/>
</svg>
