<svg width="20" height="20" viewBox="0 0 20 20" fill="none" xmlns="http://www.w3.org/2000/svg">
<path fill-rule="evenodd" clip-rule="evenodd" d="M4.68236 2.34447C5.04715 2.08182 5.4673 2.00001 5.75608 2H12.6327L16.878 6.24534V15.8537C16.878 16.6688 16.5253 17.2348 16.0493 17.5775C15.6033 17.8987 15.0855 18 14.7317 18H6.14634C5.33117 18 4.76519 17.6472 4.42252 17.1713C4.10134 16.7252 4 16.2075 4 15.8537V3.7561C4 3.09702 4.28773 2.6286 4.68236 2.34447ZM5.36642 3.29456C5.27325 3.36164 5.17073 3.47858 5.17073 3.7561V15.8537C5.17073 16.0201 5.22549 16.2829 5.37261 16.4872C5.49823 16.6617 5.71273 16.8293 6.14634 16.8293H14.7317C14.8982 16.8293 15.161 16.7745 15.3653 16.6274C15.5398 16.5018 15.7073 16.2873 15.7073 15.8537V7.46341H12.7805C12.202 7.46341 11.7546 7.30043 11.4462 7.01488C11.1466 6.73746 11.0244 6.38467 11.0244 6.09756V3.17073H5.75611C5.75611 3.17073 5.75612 3.17073 5.75611 3.17073C5.65465 3.17074 5.48943 3.20599 5.36642 3.29456ZM12.1951 3.21808V6.08857C12.1961 6.08986 12.2028 6.11993 12.2416 6.15585C12.2844 6.19551 12.4224 6.29268 12.7805 6.29268H15.2697L12.1951 3.21808Z" fill="#6E7685"/>
</svg>
