<?xml version="1.0" encoding="utf-8"?>
<!-- Generator: Adobe Illustrator 24.0.3, SVG Export Plug-In . SVG Version: 6.00 Build 0)  -->
<svg version="1.1" xmlns="http://www.w3.org/2000/svg" xmlns:xlink="http://www.w3.org/1999/xlink" x="0px" y="0px"
	 viewBox="0 0 667.6 255.1" style="enable-background:new 0 0 667.6 255.1;" xml:space="preserve">
<style type="text/css">
	.st0{display:none;}
	.st1{display:inline;fill:#D9D9D9;}
	.st2{fill:url(#SVGID_1_);}
	.st3{fill:url(#SVGID_2_);}
	.st4{fill:url(#SVGID_3_);}
</style>
<g id="Clear_Space" class="st0">
	<path class="st1" d="M16.5,154.8l8.3-14.4c3.5-6.1,10-9.8,17-9.8h20.4h11.4c-1-3-2.4-6-4.3-8.8c-10.7-16.3-32.5-21.6-49.5-12.3
		c-18.8,10.3-25.2,34.3-14,52.6c10.1,16.6,31.7,22.8,49.1,14c9.2-4.6,15.5-12.4,18.6-21.3H16.5z"/>
	<path class="st1" d="M89.9,230l8.3-14.4c3.5-6.1,10-9.8,17-9.8h20.4h11.4c-1-3-2.4-6-4.3-8.8c-10.7-16.3-32.5-21.6-49.5-12.3
		c-18.8,10.3-25.2,34.3-14,52.6c10.1,16.6,31.7,22.8,49.1,14c9.2-4.6,15.5-12.4,18.6-21.3H89.9z"/>
	<path class="st1" d="M130,13.1l8.3-14.4c3.5-6.1,10-9.8,17-9.8h20.4H187c-1-3-2.4-6-4.3-8.8c-10.7-16.3-32.5-21.6-49.5-12.3
		c-18.8,10.3-25.2,34.3-14,52.6c10.1,16.6,31.7,22.8,49.1,14c9.2-4.6,15.5-12.4,18.6-21.3H130z"/>
	<path class="st1" d="M610.4,154.8l8.3-14.4c3.5-6.1,10-9.8,17-9.8H656h11.4c-1-3-2.4-6-4.3-8.8c-10.7-16.3-32.5-21.6-49.5-12.3
		c-18.8,10.3-25.2,34.3-14,52.6c10.1,16.6,31.7,22.8,49.1,14c9.2-4.6,15.5-12.4,18.6-21.3H610.4z"/>
</g>
<g id="LOGO">
	<g>
		<path d="M554.1,164.9h-1.3c-0.2,2-0.4,3.7-0.7,5c-0.2,1.3-0.7,2.8-1.3,4.4c1.8,1.5,4.1,2.8,6.8,3.9c2.7,1.2,6.2,1.7,10.6,1.7
			c4.1,0,7.7-0.6,10.9-1.7c3.2-1.2,5.9-2.8,8.1-4.9c2.2-2.1,3.9-4.6,5-7.5c1.2-2.9,1.7-5.9,1.7-9.1c0-3.9-0.8-6.9-2.5-9.3
			c-1.6-2.3-3.7-4.2-6.1-5.7c-2.5-1.5-5.1-2.7-7.9-3.7c-2.8-1-5.5-2.2-7.9-3.5c-2.5-1.3-4.5-2.9-6.2-4.8c-1.6-1.9-2.5-4.5-2.5-7.8
			c0-1.9,0.3-3.6,1-5.3c0.7-1.6,1.6-3,2.8-4.2c1.2-1.2,2.7-2,4.3-2.7c1.6-0.6,3.5-0.9,5.4-0.9c2,0,3.6,0.3,5,1
			c1.4,0.7,2.6,1.5,3.6,2.5c1,1,1.8,2,2.4,3.2c0.6,1.2,1.1,2.2,1.4,3.2h1.3c0.4-2,0.8-3.7,1.3-5c0.4-1.3,0.9-2.6,1.6-3.8
			c-2.1-1.7-4.4-2.9-6.8-3.7c-2.5-0.8-5.4-1.2-8.7-1.2c-3.5,0-6.7,0.5-9.5,1.5c-2.8,1-5.2,2.3-7.2,4.1c-2,1.8-3.5,3.8-4.6,6.3
			c-1.1,2.4-1.6,5.1-1.6,8c0,4.1,0.8,7.4,2.5,9.9c1.6,2.5,3.7,4.5,6.1,6c2.5,1.6,5.1,2.9,7.9,3.9c2.8,1.1,5.5,2.2,7.9,3.5
			c2.5,1.3,4.5,2.8,6.1,4.7c1.6,1.9,2.5,4.5,2.5,7.7c0,2.1-0.4,4.1-1.1,5.9c-0.7,1.9-1.7,3.5-3,4.8c-1.3,1.4-2.9,2.5-4.7,3.3
			c-1.9,0.8-3.9,1.2-6.3,1.2c-2.2,0-4.3-0.3-6.1-1c-1.8-0.7-3.4-1.5-4.8-2.6c-1.4-1.1-2.5-2.2-3.5-3.5
			C555.5,167.4,554.7,166.1,554.1,164.9 M487.5,164.9h-1.3c-0.2,2-0.4,3.7-0.7,5c-0.2,1.3-0.7,2.8-1.3,4.4c1.8,1.5,4.1,2.8,6.8,3.9
			c2.7,1.2,6.2,1.7,10.6,1.7c4.1,0,7.7-0.6,10.9-1.7c3.2-1.2,5.9-2.8,8.1-4.9c2.2-2.1,3.9-4.6,5-7.5c1.2-2.9,1.7-5.9,1.7-9.1
			c0-3.9-0.8-6.9-2.5-9.3c-1.6-2.3-3.7-4.2-6.2-5.7c-2.5-1.5-5.1-2.7-7.9-3.7c-2.8-1-5.5-2.2-7.9-3.5c-2.5-1.3-4.5-2.9-6.1-4.8
			c-1.6-1.9-2.5-4.5-2.5-7.8c0-1.9,0.3-3.6,1-5.3c0.7-1.6,1.6-3,2.8-4.2c1.2-1.2,2.7-2,4.3-2.7c1.6-0.6,3.5-0.9,5.4-0.9
			c2,0,3.6,0.3,5,1c1.4,0.7,2.6,1.5,3.6,2.5c1,1,1.8,2,2.4,3.2c0.6,1.2,1.1,2.2,1.4,3.2h1.3c0.4-2,0.8-3.7,1.3-5
			c0.4-1.3,0.9-2.6,1.6-3.8c-2.1-1.7-4.4-2.9-6.8-3.7c-2.5-0.8-5.4-1.2-8.7-1.2c-3.5,0-6.7,0.5-9.5,1.5c-2.8,1-5.2,2.3-7.2,4.1
			c-2,1.8-3.5,3.8-4.6,6.3c-1.1,2.4-1.6,5.1-1.6,8c0,4.1,0.8,7.4,2.5,9.9c1.6,2.5,3.7,4.5,6.2,6c2.5,1.6,5.1,2.9,7.9,3.9
			c2.8,1.1,5.5,2.2,7.9,3.5c2.5,1.3,4.5,2.8,6.2,4.7c1.6,1.9,2.5,4.5,2.5,7.7c0,2.1-0.4,4.1-1.1,5.9c-0.7,1.9-1.7,3.5-3,4.8
			c-1.3,1.4-2.9,2.5-4.7,3.3c-1.9,0.8-3.9,1.2-6.3,1.2c-2.2,0-4.3-0.3-6.1-1c-1.8-0.7-3.4-1.5-4.8-2.6c-1.4-1.1-2.5-2.2-3.5-3.5
			C488.8,167.4,488.1,166.1,487.5,164.9 M460.8,171.2c-1.4-3.2-3-6.9-4.8-11c-1.8-4.1-3.7-8.5-5.7-13.3c-2-4.8-4.1-9.6-6.1-14.4
			c-2-4.8-4-9.6-6-14.3c-2-4.7-3.8-9.1-5.5-13.2h-2c-5.5,12.5-10.9,24.9-16.3,37c-5.4,12.1-10.9,24.3-16.6,36.6
			c1.2-0.1,2.5-0.2,3.9-0.2c1.4,0,2.7,0.1,3.9,0.2c0.9-3.2,2.3-7.3,4.1-12.2c1.8-4.9,3.9-10.1,6.1-15.6c2.2-0.1,4.3-0.1,6.4-0.2
			c2.1,0,4.2-0.1,6.4-0.1c2.3,0,4.6,0,6.9,0.1c2.3,0,4.6,0.1,6.8,0.2c0.9,2.3,1.9,4.7,2.9,7.3c1.1,2.6,2.1,5.1,3.1,7.6
			c1,2.5,1.9,4.9,2.8,7.1c0.8,2.3,1.5,4.2,2,5.8c1-0.1,1.9-0.2,2.8-0.2h2.8h2.8c0.9,0,1.8,0.1,2.8,0.2
			C463.4,176.9,462.2,174.4,460.8,171.2 M429.2,119.1l11.7,26.7c-2,0.1-3.9,0.1-5.9,0.2c-2,0-3.9,0.1-5.9,0.1c-1.8,0-3.7,0-5.7-0.1
			c-2-0.1-3.9-0.1-5.7-0.1L429.2,119.1z M339,133.6v18.1c0,4.6-0.1,9.2-0.3,13.7c-0.2,4.5-0.4,8.9-0.6,13.2c3.4-0.1,6.6-0.2,9.7-0.2
			h9.7h9.7c3.2,0,6.4,0.1,9.7,0.2c-0.4-1.1-0.5-2.1-0.5-2.8c0-0.8,0.2-1.9,0.5-3.2c-5.3,0.7-10.2,1.1-14.7,1.2
			c-4.6,0.1-9.3,0.2-14.3,0.2c-0.1-5.1-0.1-10.9-0.2-17.4c-0.1-6.5-0.1-14.1-0.1-23c0-4.6,0.1-9.2,0.3-13.6c0.2-4.4,0.4-9,0.6-13.6
			c-0.9,0.1-1.8,0.3-2.6,0.4c-0.8,0.1-1.7,0.2-2.5,0.2s-1.7-0.1-2.5-0.2c-0.8-0.1-1.7-0.2-2.6-0.4c0.2,4.6,0.4,9.2,0.6,13.6
			C338.9,124.4,339,128.9,339,133.6 M308.5,174.2l0.9-6.2l-0.4-0.4c-1,0.8-2.2,1.7-3.6,2.7c-1.4,1-3,2-4.8,2.8
			c-1.8,0.9-3.8,1.6-5.9,2.3c-2.1,0.6-4.5,0.9-7,0.9c-4.1,0-8-0.7-11.5-2c-3.5-1.3-6.6-3.4-9.3-6.2c-2.6-2.8-4.7-6.3-6.1-10.5
			c-1.5-4.2-2.2-9.3-2.2-15.1c0-5.8,0.7-10.8,2.2-15.1c1.5-4.2,3.5-7.7,6.1-10.5c2.6-2.8,5.7-4.8,9.3-6.1c3.5-1.3,7.4-2,11.5-2
			c2.5,0,4.8,0.3,6.9,1c2.1,0.7,4,1.5,5.7,2.5c1.7,1,3.2,2,4.4,3c1.3,1.1,2.2,2,2.9,2.8l0.6-0.2c0.2-1.1,0.5-2.5,0.8-4.2
			c0.3-1.7,0.8-3,1.4-4c-2.9-1.3-6.3-2.5-10.1-3.4c-3.8-0.9-8-1.4-12.7-1.4c-5.8,0-11.1,0.8-16,2.5c-4.8,1.7-9,4.1-12.5,7.4
			c-3.5,3.2-6.2,7.2-8.1,11.8c-1.9,4.7-2.9,10-2.9,15.9c0,6,1,11.3,2.9,15.9c1.9,4.7,4.6,8.6,8,11.8c3.4,3.2,7.4,5.6,12.1,7.2
			c4.7,1.6,9.8,2.4,15.3,2.4c2.6,0,5.1-0.2,7.5-0.6c2.4-0.4,4.5-0.9,6.5-1.4c1.9-0.5,3.6-1.1,4.9-1.8
			C306.9,175.4,307.9,174.8,308.5,174.2"/>
	</g>
	<g>
		<linearGradient id="SVGID_1_" gradientUnits="userSpaceOnUse" x1="74.0764" y1="159.7753" x2="142.3381" y2="127.9444">
			<stop  offset="0" style="stop-color:#017C91"/>
			<stop  offset="0.2159" style="stop-color:#03788E"/>
			<stop  offset="0.4396" style="stop-color:#076B84"/>
			<stop  offset="0.6669" style="stop-color:#0F5774"/>
			<stop  offset="0.8953" style="stop-color:#1A3A5D"/>
			<stop  offset="1" style="stop-color:#202A51"/>
		</linearGradient>
		<path class="st2" d="M89.9,154.8l8.3-14.4c3.5-6.1,10-9.8,17-9.8h20.4h11.4c-1-3-2.4-6-4.3-8.8c-10.7-16.3-32.5-21.6-49.5-12.3
			c-18.8,10.3-25.2,34.3-14,52.6c10.1,16.6,31.7,22.8,49.1,14c9.2-4.6,15.5-12.4,18.6-21.3H89.9z"/>
		<linearGradient id="SVGID_2_" gradientUnits="userSpaceOnUse" x1="222.2579" y1="166.5603" x2="160.5607" y2="123.3594">
			<stop  offset="2.512572e-04" style="stop-color:#AE638E"/>
			<stop  offset="0.2495" style="stop-color:#AA638F"/>
			<stop  offset="0.5077" style="stop-color:#9D6490"/>
			<stop  offset="0.7691" style="stop-color:#896593"/>
			<stop  offset="1" style="stop-color:#706697"/>
		</linearGradient>
		<path class="st3" d="M209.1,154.8h-16.6c-7,0-13.5-3.7-17-9.8l-10.2-17.6l-5.7-9.8c-2.1,2.4-4,5.1-5.5,8.2
			c-8.7,17.4-2.5,38.9,14.2,49c18.4,11.1,42.3,4.7,52.6-14.2c9.3-17.1,3.9-38.9-12.4-49.5c-8.6-5.6-18.6-7.2-27.8-5.4L209.1,154.8z"
			/>
		<linearGradient id="SVGID_3_" gradientUnits="userSpaceOnUse" x1="153.1333" y1="34.3934" x2="146.5689" y2="109.4252">
			<stop  offset="0" style="stop-color:#B3D1BD"/>
			<stop  offset="0.1493" style="stop-color:#AFD0BC"/>
			<stop  offset="0.304" style="stop-color:#A2CDB8"/>
			<stop  offset="0.4613" style="stop-color:#8EC9B2"/>
			<stop  offset="0.6204" style="stop-color:#71C3AA"/>
			<stop  offset="0.7808" style="stop-color:#4BBB9F"/>
			<stop  offset="0.9402" style="stop-color:#1EB192"/>
			<stop  offset="1" style="stop-color:#0BAD8D"/>
		</linearGradient>
		<path class="st4" d="M149.5,51.5l8.3,14.4c3.5,6.1,3.5,13.5,0,19.6l-10.2,17.6l-5.7,9.8c3.1,0.6,6.4,0.9,9.8,0.7
			c19.4-1.1,35-17.3,35.4-36.8c0.5-21.5-17.1-39-38.6-38.5c-19.5,0.5-35.6,16.1-36.7,35.5c-0.6,10.3,3,19.7,9.2,26.8L149.5,51.5z"/>
	</g>
</g>
</svg>
